# xmcd
#
# Track frame offsets:
#	150
#	15990
#	28132
#	43237
#	59290
#	73112
#	86332
#	101607
#	115100
#	127082
#	141702
#	156807
#	171605
#	186570
#	200740
#	212802
#	231565
#	249767
#	267077
#	287100
#
# Disc length: 4156
#
# Revision: 2
# Processed by: cddbd v1.5.1PL0 Copyright (c) Steve Scherf et al.
# Submitted via: CDex 1.50beta9
# Normalized: r1:TDELIM( - )
#
DISCID=3a103a14
DTITLE=Various Artist - CDX Volume 61 - July 1993
DYEAR=1993
DGENRE=Country
TTITLE0=Darryl and Don Ellis - 10 Minutes Till
TTITLE1=Jim Wise - Cowboy Cadillac
TTITLE2=Alison Krauss and Union Station - Every Time You Say Goodbye
TTITLE3=Lorrie Morgan - Half Enough
TTITLE4=Dude Mowrey - Hold On Elroy
TTITLE5=Billy Dean - I'm Not Built That Way
TTITLE6=Suzy Bogguss - Just Like The Weather
TTITLE7=Dennis Robbins - Looking For A Thing Called Love
TTITLE8=Martina McBride - My Baby Loves Me
TTITLE9=Vince Gill - One More Last Chance
TTITLE10=Joe Diffie - Prop Me Up Beside The Jukebox (If I Die)
TTITLE11=Johnny Rodriguez - Run For The Border
TTITLE12=Confederate Railroad - Trashy Women
TTITLE13=Ronnie McDowell - Yippy Ti Yi Yo
TTITLE14=Reddmann - The Sweetest Song On Earth (The Candy Bar Song)
TTITLE15=Alan Jackson - Chattahoochee (DT)
TTITLE16=Shenandoah - Janie Baker's Love Slave (DT)
TTITLE17=Joe Diffie - Prop Me Up Beside The Jukebox (If I Die) (DT)
TTITLE18=Confederate Railroad - Trashy Women (DT)
TTITLE19=Ronnie McDowell - Yippy Ti Yi Yo (DT)
EXTD=YEAR: 1993
EXTT0=
EXTT1=
EXTT2=
EXTT3=
EXTT4=
EXTT5=
EXTT6=
EXTT7=
EXTT8=
EXTT9=
EXTT10=
EXTT11=
EXTT12=
EXTT13=
EXTT14=
EXTT15=
EXTT16=
EXTT17=
EXTT18=
EXTT19=
PLAYORDER=
